<svg xmlns="http://www.w3.org/2000/svg" xmlns:xlink="http://www.w3.org/1999/xlink" width="200" height="80" viewBox="0 0 120.364 27.398">
                    <defs>
                        <clipPath id="clip-path">
                            <rect id="Rectangle_43" data-name="Rectangle 43" width="120.364" height="27.398" transform="translate(0 -1)" fill="none"></rect>
                        </clipPath>
                    </defs>
                    <g id="Group_31" data-name="Group 31" transform="translate(-35 -15)">
                        <g id="Group_30" data-name="Group 30" transform="translate(35 16)" clip-path="url(#clip-path)">
                            <path id="Path_29" data-name="Path 29" d="M1682.835,7.6a2.228,2.228,0,0,1,.589-1.764,2.514,2.514,0,0,1,2.465-.682,1.594,1.594,0,0,1,.994,1.96,1.555,1.555,0,0,1-1.57,1.328,1.259,1.259,0,0,1-.984-.514c-.1-.118-.209-.235-.319-.348a.35.35,0,0,0-.526.006c-.169.144-.119.311,0,.47a17.608,17.608,0,0,1,1.126,1.474,4.433,4.433,0,0,1-.714,5.332,6.523,6.523,0,0,1-6.777,1.559,11.032,11.032,0,0,1-1.4-.617,1.481,1.481,0,0,0,.818,2.4,11.108,11.108,0,0,0,2.057.075c1.438-.029,2.876-.135,4.314-.127a4.051,4.051,0,0,1,2.821,1.032c.171.159.321.341.494.526a2.851,2.851,0,0,0,.97-1.65,4.65,4.65,0,0,0,.111-1.082q.011-6.354,0-12.708a3.407,3.407,0,0,0-.532-2.167,2.188,2.188,0,0,0-.568-.549.469.469,0,0,1-.228-.6L1691.517,0V8.391l.056.03c.074-.093.149-.186.222-.28a3.763,3.763,0,0,1,3.3-1.5,4.566,4.566,0,0,1,2.5.7,4.068,4.068,0,0,1,1.735,2.678,7.958,7.958,0,0,1,.124,1.438c.014,1.872.01,3.743,0,5.615a3.411,3.411,0,0,0,.853,2.387.786.786,0,0,0,.212.2.428.428,0,0,1,.233.576h-6.783c-.075-.246.007-.382.212-.557a2.7,2.7,0,0,0,1.012-2.06c.024-2.491.013-4.983-.006-7.474a5.816,5.816,0,0,0-.177-1.225,1.435,1.435,0,0,0-2.2-.929,3.055,3.055,0,0,0-1.254,1.45.618.618,0,0,0-.028.26q0,3.738,0,7.477a3.814,3.814,0,0,0,.551,2.024,1.515,1.515,0,0,0,.4.466.47.47,0,0,1,.2.578H1686.5c.072.294.151.552.2.816a4.445,4.445,0,0,1-.223,2.663,3.852,3.852,0,0,1-2.25,1.972,12.062,12.062,0,0,1-4.617.7,15.662,15.662,0,0,1-4.335-.475,3.99,3.99,0,0,1-1.98-1.113,1.813,1.813,0,0,1,.167-2.716,12.163,12.163,0,0,1,1.02-.7,3.27,3.27,0,0,1-1.345-3.151,3.956,3.956,0,0,1,2.108-2.832c-.259-.244-.508-.449-.722-.686a4.454,4.454,0,0,1-1.021-4.338,4.3,4.3,0,0,1,1.689-2.4,6.7,6.7,0,0,1,7.224-.6c.123.056.242.122.42.213m-7.141,14.446a2.058,2.058,0,0,0,.513,2.893,4.906,4.906,0,0,0,2.545.84,7.737,7.737,0,0,0,4.04-.6,2.292,2.292,0,0,0,1.33-1.266,1.267,1.267,0,0,0-.813-1.747,3,3,0,0,0-.871-.132c-1.112.032-2.223.093-3.334.146a9.256,9.256,0,0,1-3.409-.139m1.927-12.91c.062.673.092,1.294.181,1.905a15.037,15.037,0,0,0,1.008,3.777,2.072,2.072,0,0,0,.905,1.129.6.6,0,0,0,.966-.39,4.678,4.678,0,0,0,.187-1.069,11.718,11.718,0,0,0-.383-3.359,11.468,11.468,0,0,0-.972-2.9,1.754,1.754,0,0,0-.82-.856.628.628,0,0,0-.943.434c-.071.455-.092.918-.13,1.325" transform="translate(-1585.982)" fill="#272727"></path>
                            <path id="Path_30" data-name="Path 30" d="M574.339,125.481l-.488,2.859.064.023c.049-.108.1-.217.147-.324a3.928,3.928,0,0,1,2.126-2.224,2.937,2.937,0,0,1,2.462.043,1.379,1.379,0,0,1,.5.362c.159.218.336.191.541.155l5.174-.912a.476.476,0,0,1,.1.016l-.447,2.682c.267-.406.476-.772.732-1.1a3.621,3.621,0,0,1,2.869-1.47,4.454,4.454,0,0,1,3.5,1.195,4.283,4.283,0,0,1,1.248,3.037c.031,2.028.013,4.058.015,6.087a3.494,3.494,0,0,0,.859,2.5,2.426,2.426,0,0,0,.256.244c.236.189.238.186.216.533H587.39c-.077-.244.006-.385.213-.555a2.9,2.9,0,0,0,1-1.913,4.389,4.389,0,0,0,.054-.647c-.014-2.324-.026-4.648-.059-6.972a5.786,5.786,0,0,0-.172-1.194,1.387,1.387,0,0,0-2-1.052,2.874,2.874,0,0,0-1.47,1.582.636.636,0,0,0-.017.263q0,3.62,0,7.239a3.581,3.581,0,0,0,1.077,2.775c.1.093.095.3.148.479H579.4a.424.424,0,0,1,.168-.5,3.371,3.371,0,0,0,1.164-2.7c0-2.1.007-4.2,0-6.294a3.118,3.118,0,0,0-.8-2.364c-.042-.041-.081-.086-.124-.126-.012-.011-.035-.008-.011,0a6.893,6.893,0,0,1-.121,1.178,2.054,2.054,0,0,1-2.757,1.276,1.468,1.468,0,0,1-.789-.8,3.587,3.587,0,0,0-.335-.653.5.5,0,0,0-.851-.09,1.759,1.759,0,0,0-.62,1.338c.033,2.314.007,4.629.032,6.943a3,3,0,0,0,.924,2.171.575.575,0,0,1,.189.619h-6.7c-.075-.218.005-.345.178-.5a3.029,3.029,0,0,0,1.134-2.286c.026-2.393.018-4.786,0-7.18a2.771,2.771,0,0,0-1.166-2.25.376.376,0,0,1-.159-.453c.027-.077.195-.126.306-.146q2.6-.466,5.2-.92c.016,0,.035.009.077.022" transform="translate(-539.224 -118.95)" fill="#272727"></path>
                            <path id="Path_31" data-name="Path 31" d="M1201.414,40.4a.426.426,0,0,1,.271-.567,2.072,2.072,0,0,0,1.026-1.787c.043-.439.018-.885.018-1.329q0-2.836,0-5.673v-.3c-.112-.006-.206-.016-.3-.016-1.913,0-3.826,0-5.739-.006-.244,0-.318.067-.317.314.009,2.068,0,4.137.009,6.2a4.318,4.318,0,0,0,.251,1.681,1.7,1.7,0,0,0,.9.964.29.29,0,0,1,.188.4c-.024.071-.188.133-.289.134q-3.387.011-6.774.006h-.228v-.447a1.706,1.706,0,0,0,1.132-1.188,6.267,6.267,0,0,0,.233-1.6q.027-6.352,0-12.7a7.581,7.581,0,0,0-.221-1.6,1.637,1.637,0,0,0-.871-1.03c-.306-.176-.31-.169-.281-.56.08-.005.164-.016.248-.016q3.387,0,6.774,0c.1,0,.258.056.274.117.037.139.057.3-.145.391a1.941,1.941,0,0,0-1.129,1.742c-.065.714-.063,1.435-.068,2.153-.01,1.359,0,2.718-.008,4.077,0,.265.087.336.341.334q2.855-.012,5.709,0c.253,0,.313-.089.312-.328-.008-1.93,0-3.861-.006-5.791a2.267,2.267,0,0,0-.786-1.947.907.907,0,0,0-.247-.158.4.4,0,0,1-.27-.584c.077,0,.163-.012.249-.012q3.372,0,6.745,0c.115,0,.3-.093.324.136.017.17.012.313-.2.4a1.8,1.8,0,0,0-1.084,1.444,6.673,6.673,0,0,0-.121,1.26q-.013,6.367,0,12.734a6.792,6.792,0,0,0,.22,1.509,1.586,1.586,0,0,0,1.015,1.148c.219.085.175.241.155.383-.007.05-.139.118-.215.118q-3.505.009-7.011,0a.436.436,0,0,1-.093-.023" transform="translate(-1128.657 -20.162)" fill="#272727"></path>
                            <path id="Path_32" data-name="Path 32" d="M11.545,30.6c.36.126.722.235,1.071.377a5,5,0,0,1,2.853,2.757,4.7,4.7,0,0,1-1.448,5.6,7.078,7.078,0,0,1-4.3,1.316c-3.194.042-6.39.015-9.585.016a.9.9,0,0,1-.105-.014.424.424,0,0,1,.192-.533,2.709,2.709,0,0,0,1.138-2.136c.014-.177.021-.354.021-.531q0-6.264,0-12.528a4.107,4.107,0,0,0-.43-2.113,1.963,1.963,0,0,0-.934-.848v-.436H.338q4.2,0,8.4,0a7.961,7.961,0,0,1,3.916.946,3.935,3.935,0,0,1,2.125,3.39c.142,2.189-1.088,3.534-2.878,4.508-.1.056-.213.1-.318.155-.013.007-.017.032-.04.076M5.994,35.449c0,1.369.007,2.739-.006,4.108,0,.263.083.389.336.407.658.048,1.315.136,1.973.132a2.347,2.347,0,0,0,2.3-1.508,6.393,6.393,0,0,0,.039-5.432A3.237,3.237,0,0,0,7.371,31.07a10.621,10.621,0,0,1-1.094,0c-.219-.012-.29.045-.289.274.01,1.369.005,2.738.005,4.108m0-9.257c0,1.28,0,2.56.007,3.84,0,.1.1.28.154.283a12.875,12.875,0,0,0,2.261.05,1.739,1.739,0,0,0,1.279-1.208,6.922,6.922,0,0,0,.337-4.109,3.765,3.765,0,0,0-1.083-1.987,3.638,3.638,0,0,0-2.725-.981c-.222,0-.232.1-.231.271,0,1.28,0,2.56,0,3.84" transform="translate(0 -20.409)" fill="#272727"></path>
                            <path id="Path_33" data-name="Path 33" d="M310.4,134.718a7.061,7.061,0,0,1,5.838-6.89,7.167,7.167,0,0,1,6.92,2.417,6.6,6.6,0,0,1,1.6,5.511,7.157,7.157,0,0,1-5.725,5.8,7.265,7.265,0,0,1-8.094-4.177,6.088,6.088,0,0,1-.536-2.659m4.426-2.962c.091.891.14,1.677.258,2.453a14.059,14.059,0,0,0,1.707,5.08,3.985,3.985,0,0,0,1.1,1.3c.949.671,1.776.421,2.1-.689a8.485,8.485,0,0,0,.345-1.994,14.452,14.452,0,0,0-1.489-6.962,5.581,5.581,0,0,0-1.451-2.024c-.775-.618-1.87-.834-2.245.693a21.081,21.081,0,0,0-.316,2.143" transform="translate(-294.294 -121.08)" fill="#272727"></path>
                            <path id="Path_34" data-name="Path 34" d="M1554.146,138.93h-6.767a.4.4,0,0,1,.242-.543,1.919,1.919,0,0,0,.907-1.382,5.7,5.7,0,0,0,.159-1.369c.016-2.107.012-4.215,0-6.322a3.2,3.2,0,0,0-.584-2.113,1.9,1.9,0,0,0-.485-.466.447.447,0,0,1-.237-.6l5.544-.951v.385c0,3.417-.014,6.834.014,10.251a7.137,7.137,0,0,0,.3,1.668,1.374,1.374,0,0,0,.685.888.421.421,0,0,1,.219.557" transform="translate(-1467.073 -118.687)" fill="#272727"></path>
                            <path id="Path_35" data-name="Path 35" d="M1568.279,12.639a2.42,2.42,0,0,1-2.373-2.4,2.416,2.416,0,0,1,4.833.034,2.4,2.4,0,0,1-2.459,2.369" transform="translate(-1484.668 -7.445)" fill="#1a1818"></path>
                            <circle id="Ellipse_1" data-name="Ellipse 1" cx="2.393" cy="2.393" r="2.393" transform="translate(113.552 0.407)" fill="none" stroke="#272727" stroke-miterlimit="10" stroke-width="0.5"></circle>
                        </g>
                    </g>
                </svg>